HIERARCHY
ROOT Hips
{
	OFFSET 0.00000 0.00000 0.00000
	CHANNELS 6 Xposition Yposition Zposition Zrotation Yrotation Xrotation 
	JOINT LHipJoint
	{
		OFFSET 0 0 0
		CHANNELS 3 Zrotation Yrotation Xrotation
		JOINT LeftUpLeg
		{
			OFFSET 1.43652 -1.81092 0.91346
			CHANNELS 3 Zrotation Yrotation Xrotation
			JOINT LeftLeg
			{
				OFFSET 2.45984 -6.75837 0.00000
				CHANNELS 3 Zrotation Yrotation Xrotation
				JOINT LeftFoot
				{
					OFFSET 2.63718 -7.24559 0.00000
					CHANNELS 3 Zrotation Yrotation Xrotation
					JOINT LeftToeBase
					{
						OFFSET 0.19690 -0.54098 2.12239
						CHANNELS 3 Zrotation Yrotation Xrotation
						End Site
						{
							OFFSET 0.00000 -0.00000 1.10116
						}
					}
				}
			}
		}
	}
	JOINT RHipJoint
	{
		OFFSET 0 0 0
		CHANNELS 3 Zrotation Yrotation Xrotation
		JOINT RightUpLeg
		{
			OFFSET -1.35116 -1.81092 0.91345
			CHANNELS 3 Zrotation Yrotation Xrotation
			JOINT RightLeg
			{
				OFFSET -2.55576 -7.02189 0.00000
				CHANNELS 3 Zrotation Yrotation Xrotation
				JOINT RightFoot
				{
					OFFSET -2.61938 -7.19669 0.00000
					CHANNELS 3 Zrotation Yrotation Xrotation
					JOINT RightToeBase
					{
						OFFSET -0.32509 -0.89318 2.23646
						CHANNELS 3 Zrotation Yrotation Xrotation
						End Site
						{
							OFFSET -0.00000 -0.00000 1.19625
						}
					}
				}
			}
		}
	}
	JOINT LowerBack
	{
		OFFSET 0 0 0
		CHANNELS 3 Zrotation Yrotation Xrotation
		JOINT Spine
		{
			OFFSET 0.05193 2.08077 -0.11958
			CHANNELS 3 Zrotation Yrotation Xrotation
			JOINT Spine1
			{
				OFFSET 0.04960 2.08447 0.01967
				CHANNELS 3 Zrotation Yrotation Xrotation
				JOINT Neck
				{
					OFFSET 0 0 0
					CHANNELS 3 Zrotation Yrotation Xrotation
					JOINT Neck1
					{
						OFFSET -0.10699 1.82066 0.27584
						CHANNELS 3 Zrotation Yrotation Xrotation
						JOINT Head
						{
							OFFSET 0.14949 1.84747 -0.32279
							CHANNELS 3 Zrotation Yrotation Xrotation
							End Site
							{
								OFFSET 0.04969 1.88916 -0.14562
							}
						}
					}
				}
				JOINT LeftShoulder
				{
					OFFSET 0 0 0
					CHANNELS 3 Zrotation Yrotation Xrotation
					JOINT LeftArm
					{
						OFFSET 3.73629 1.27211 -0.12847
						CHANNELS 3 Zrotation Yrotation Xrotation
						JOINT LeftForeArm
						{
							OFFSET 5.10995 -0.00000 0.00000
							CHANNELS 3 Zrotation Yrotation Xrotation
							JOINT LeftHand
							{
								OFFSET 3.21207 -0.00000 0.00000
								CHANNELS 3 Zrotation Yrotation Xrotation
								JOINT LeftFingerBase
								{
									OFFSET 0 0 0
									CHANNELS 3 Zrotation Yrotation Xrotation
									JOINT LeftHandIndex1
									{
										OFFSET 0.63349 -0.00000 0.00000
										CHANNELS 3 Zrotation Yrotation Xrotation
										End Site
										{
											OFFSET 0.51074 -0.00000 0.00000
										}
									}
								}
								JOINT LThumb
								{
									OFFSET 0 0 0
									CHANNELS 3 Zrotation Yrotation Xrotation
									End Site
									{
										OFFSET 0.51853 -0.00000 0.51853
									}
								}
							}
						}
					}
				}
				JOINT RightShoulder
				{
					OFFSET 0 0 0
					CHANNELS 3 Zrotation Yrotation Xrotation
					JOINT RightArm
					{
						OFFSET -3.70251 1.29541 -0.35354
						CHANNELS 3 Zrotation Yrotation Xrotation
						JOINT RightForeArm
						{
							OFFSET -5.25109 -0.00000 0.00000
							CHANNELS 3 Zrotation Yrotation Xrotation
							JOINT RightHand
							{
								OFFSET -3.28364 -0.00000 0.00000
								CHANNELS 3 Zrotation Yrotation Xrotation
								JOINT RightFingerBase
								{
									OFFSET 0 0 0
									CHANNELS 3 Zrotation Yrotation Xrotation
									JOINT RightHandIndex1
									{
										OFFSET -0.59974 -0.00000 0.00000
										CHANNELS 3 Zrotation Yrotation Xrotation
										End Site
										{
											OFFSET -0.48353 -0.00000 0.00000
										}
									}
								}
								JOINT RThumb
								{
									OFFSET 0 0 0
									CHANNELS 3 Zrotation Yrotation Xrotation
									End Site
									{
										OFFSET -0.49091 -0.00000 0.49091
									}
								}
							}
						}
					}
				}
			}
		}
	}
}
MOTION
Frames: 9
Frame Time: .0083333
7.5521 17.0905 -8.5489 -9.5872 -55.5009 12.5220 0.0000 0.0000 0.0000 -20.0591 0.5292 -11.7812 3.3311 11.2127 33.0005 1.0739 9.4652 -25.1375 0.0004 -0.1294 -0.3557 0.0000 0.0000 0.0000 21.7039 2.5288 -27.8741 -6.9039 -15.2504 48.5098 -0.9781 -10.9428 -25.6197 -0.1457 -2.4595 6.7775 -0.0387 2.0259 8.9836 2.6077 2.8151 -0.1714 2.3627 1.4176 -5.3554 -5.6044 3.5127 -18.0209 5.9706 5.0681 17.8477 3.5336 2.6353 8.1894 0.0000 -0.0000 0.0000 -84.5034 7.3712 59.6391 70.5522 -58.5215 -43.2413 -0.0000 0.0000 -14.5873 22.3184 13.1275 5.3265 -7.1250 0.0000 -0.0000 -4.6198 44.0804 0.1051 0.0000 -0.0000 0.0000 79.7323 -8.7234 52.6274 -58.5404 55.9083 -33.1294 0.0000 -0.0000 -34.1275 -24.9366 11.3847 -5.2440 7.1250 -0.0000 -0.0000 1.5402 -17.4627 1.0074
7.5339 17.0896 -8.5828 -9.9419 -56.2959 12.9069 0.0000 0.0000 0.0000 -19.8892 0.9492 -12.0138 3.3543 11.2476 33.1194 1.0568 9.7782 -25.2548 0.0010 -0.2071 -0.5690 0.0000 0.0000 0.0000 21.9863 2.6133 -27.5277 -6.7321 -15.1021 47.8536 -1.0723 -10.1913 -25.7149 -0.1235 -2.2652 6.2392 -0.1058 2.1558 8.8752 2.6122 2.9822 -0.2329 2.3846 1.5028 -5.3700 -5.5274 3.6738 -18.0408 5.8693 5.2914 17.8295 3.5114 2.7361 8.1775 0.0000 -0.0000 0.0000 -84.4673 7.4277 60.1531 70.8877 -58.5738 -43.5276 -0.0000 0.0000 -14.8994 22.0266 13.3944 5.3541 -7.1250 0.0000 -0.0000 -4.9331 44.3304 0.0817 0.0000 -0.0000 0.0000 79.5747 -8.4978 54.0641 -59.6292 56.2103 -34.0327 0.0000 -0.0000 -34.6618 -24.3616 11.2550 -5.0506 7.1250 -0.0000 -0.0000 1.9359 -17.6612 1.2580
7.5143 17.0893 -8.6155 -10.2981 -57.0586 13.3066 0.0000 0.0000 0.0000 -19.7288 1.3259 -12.2317 3.3760 11.2802 33.2308 1.0368 10.1161 -25.3759 0.0018 -0.2720 -0.7472 0.0000 0.0000 0.0000 22.2683 2.6933 -27.2138 -6.5495 -14.9405 47.1490 -1.1533 -9.5394 -25.8132 -0.1219 -2.2504 6.1981 -0.1467 2.2656 8.7375 2.6029 3.1242 -0.2882 2.3824 1.5747 -5.3586 -5.4395 3.8401 -18.0590 5.7748 5.5174 17.8015 3.4896 2.8397 8.1624 0.0000 0.0000 0.0000 -84.4205 7.4503 60.6545 71.2106 -58.6231 -43.8031 -0.0000 0.0000 -15.2750 21.7871 13.7328 5.4205 -7.1250 0.0000 -0.0000 -5.2143 44.6612 0.0437 0.0000 0.0000 0.0000 79.4404 -8.2256 55.4707 -60.6933 56.4919 -34.9186 0.0000 -0.0000 -35.1389 -23.7163 11.1320 -4.8481 7.1250 -0.0000 -0.0000 2.3825 -17.8564 1.5385
7.4939 17.0893 -8.6467 -10.6514 -57.7571 13.7176 0.0000 0.0000 0.0000 -19.5742 1.6335 -12.4333 3.3967 11.3111 33.3364 1.0140 10.4729 -25.4964 0.0030 -0.3522 -0.9677 0.0000 0.0000 0.0000 22.5581 2.7220 -26.9504 -6.3631 -14.7712 46.4220 -1.2206 -9.0082 -25.9178 -0.1337 -2.3571 6.4936 -0.1313 2.3418 8.5761 2.5725 3.2258 -0.3420 2.3331 1.6248 -5.3260 -5.3378 4.0137 -18.0765 5.6938 5.7465 17.7701 3.4703 2.9473 8.1463 0.0000 0.0000 0.0000 -84.3543 7.4514 61.1318 71.5338 -58.6715 -44.0792 -0.0000 0.0000 -15.7188 21.5420 14.1246 5.5025 -7.1250 0.0000 -0.0000 -5.5142 45.0464 -0.0063 0.0000 0.0000 0.0000 79.3431 -7.9162 56.8414 -61.7288 56.7533 -35.7833 0.0000 -0.0000 -35.5097 -23.0145 11.0240 -4.6437 7.1250 -0.0000 -0.0000 2.8711 -18.0376 1.8433
7.4730 17.0899 -8.6761 -10.9840 -58.3733 14.1202 0.0000 0.0000 0.0000 -19.4286 1.8545 -12.6168 3.4175 11.3421 33.4425 0.9895 10.8361 -25.6160 0.0043 -0.4252 -1.1683 0.0000 0.0000 0.0000 22.8546 2.6516 -26.7448 -6.1784 -14.5990 45.6935 -1.2767 -8.5719 -26.0185 -0.1539 -2.5282 6.9680 -0.0586 2.3782 8.3937 2.5211 3.2786 -0.3929 2.2375 1.6488 -5.2714 -5.2235 4.1952 -18.0878 5.6229 5.9805 17.7329 3.4525 3.0591 8.1272 0.0000 -0.0000 0.0000 -84.2832 7.4372 61.5751 71.8693 -58.7207 -44.3658 -0.0000 0.0000 -16.2435 21.3026 14.5345 5.5892 -7.1250 0.0000 -0.0000 -5.8168 45.4497 -0.0648 0.0000 -0.0000 0.0000 79.2862 -7.5744 58.1676 -62.7321 56.9951 -36.6235 0.0000 -0.0000 -35.7436 -22.2959 10.9471 -4.4526 7.1250 -0.0000 -0.0000 3.3739 -18.1841 2.1563
7.4517 17.0913 -8.7036 -11.2992 -58.9097 14.5109 0.0000 0.0000 0.0000 -19.2844 1.9925 -12.7785 3.4385 11.3731 33.5487 0.9660 11.1865 -25.7393 0.0054 -0.4760 -1.3080 0.0000 0.0000 0.0000 23.1644 2.4699 -26.5939 -6.0018 -14.4301 44.9890 -1.3229 -8.1997 -26.0982 -0.1775 -2.7138 7.4830 0.0415 2.3848 8.2143 2.4723 3.2945 -0.4518 2.1343 1.6539 -5.2237 -5.1167 4.3784 -18.0875 5.5543 6.2176 17.7050 3.4369 3.1720 8.1092 -0.0000 -0.0000 0.0000 -84.2225 7.4093 62.0178 72.2188 -58.7710 -44.6646 -0.0000 0.0000 -16.8910 21.0504 14.9569 5.6727 -7.1250 0.0000 -0.0000 -6.1387 45.8624 -0.1312 -0.0000 -0.0000 0.0000 79.2384 -7.2325 59.4342 -63.7124 57.2207 -37.4467 0.0000 -0.0000 -35.8159 -21.6197 10.9082 -4.2891 7.1250 -0.0000 -0.0000 3.8490 -18.2836 2.4527
7.4296 17.0941 -8.7300 -11.5951 -59.3885 14.8842 0.0000 0.0000 0.0000 -19.1378 2.0780 -12.9246 3.4589 11.4033 33.6523 0.9494 11.4818 -25.8728 0.0053 -0.4706 -1.2930 0.0000 0.0000 0.0000 23.4833 2.1979 -26.4854 -5.8380 -14.2695 44.3279 -1.3622 -7.8500 -26.1475 -0.2029 -2.9005 8.0019 0.1511 2.3700 8.0418 2.4290 3.2828 -0.5178 2.0346 1.6453 -5.1860 -5.0164 4.5642 -18.0756 5.4871 6.4590 17.6866 3.4231 3.2863 8.0923 -0.0000 0.0000 0.0000 -84.2167 7.3900 62.4100 72.5839 -58.8223 -44.9769 -0.0000 0.0000 -17.6089 20.7577 15.3668 5.7355 -7.1250 0.0000 -0.0000 -6.5004 46.2549 -0.2022 -0.0000 0.0000 0.0000 79.1996 -6.8925 60.6423 -64.6627 57.4295 -38.2466 0.0000 -0.0000 -35.7057 -21.0564 10.9152 -4.1695 7.1250 -0.0000 -0.0000 4.2461 -18.3230 2.7034
7.4067 17.0968 -8.7564 -11.8895 -59.8828 15.2506 0.0000 0.0000 0.0000 -18.9978 2.1986 -13.0628 3.4777 11.4309 33.7473 0.9332 11.7635 -26.0020 0.0053 -0.4708 -1.2938 0.0000 0.0000 0.0000 23.8004 1.9181 -26.3956 -5.6913 -14.1224 43.7300 -1.3946 -7.4983 -26.1494 -0.2246 -3.0505 8.4194 0.2400 2.3617 7.8834 2.3909 3.2782 -0.5872 1.9504 1.6407 -5.1616 -4.9201 4.7521 -18.0528 5.4196 6.7037 17.6784 3.4102 3.4017 8.0769 -0.0000 -0.0000 0.0000 -84.2420 7.3667 62.7749 72.9584 -58.8737 -45.2973 -0.0000 0.0000 -18.3906 20.3939 15.7663 5.7683 -7.1250 0.0000 -0.0000 -6.9314 46.6246 -0.2792 -0.0000 -0.0000 0.0000 79.1725 -6.5610 61.7861 -65.5884 57.6240 -39.0276 0.0000 -0.0000 -35.4122 -20.5969 10.9733 -4.0918 7.1250 -0.0000 -0.0000 4.5713 -18.2989 2.9142
7.3830 17.0988 -8.7839 -12.2079 -60.4249 15.6354 0.0000 0.0000 0.0000 -18.8564 2.4074 -13.2085 3.4944 11.4554 33.8314 0.9166 12.0281 -26.1161 0.0059 -0.4964 -1.3639 0.0000 0.0000 0.0000 24.1104 1.7084 -26.3015 -5.5639 -13.9920 43.2055 -1.4224 -7.1336 -26.1150 -0.2410 -3.1595 8.7233 0.3027 2.3760 7.7379 2.3580 3.3017 -0.6615 1.8825 1.6508 -5.1523 -4.8247 4.9381 -18.0183 5.3537 6.9450 17.6814 3.3975 3.5152 8.0638 0.0000 0.0000 0.0000 -84.2945 7.3436 63.1327 73.3395 -58.9248 -45.6237 -0.0000 0.0000 -19.2043 20.0284 16.1330 5.7839 -7.1250 0.0000 -0.0000 -7.3615 46.9575 -0.3575 0.0000 0.0000 0.0000 79.1640 -6.2433 62.8555 -66.4931 57.8055 -39.7924 0.0000 -0.0000 -34.9459 -20.2724 11.0700 -4.0567 7.1250 -0.0000 -0.0000 4.8020 -18.2228 3.0703
